Latin-Mizra-Medium.ufo
<glyph name="ampersand" format="1">
  <advance width="557"/>
  <unicode hex="0026"/>
  <outline>
    <contour>
      <point x="259" y="-11"/>
      <point x="311" y="13"/>
      <point x="351" y="50" type="curve"/>
      <point x="409" y="-6" type="line"/>
      <point x="470" y="-6"/>
      <point x="511" y="0"/>
      <point x="550" y="15" type="curve"/>
      <point x="509" y="44"/>
      <point x="463" y="86"/>
      <point x="418" y="131" type="curve"/>
      <point x="453" y="187"/>
      <point x="481" y="248"/>
      <point x="514" y="294" type="curve"/>
      <point x="479" y="294"/>
      <point x="453" y="292"/>
      <point x="410" y="288" type="curve"/>
      <point x="407" y="247"/>
      <point x="397" y="206"/>
      <point x="381" y="171" type="curve"/>
      <point x="295" y="264"/>
      <point x="223" y="365"/>
      <point x="223" y="404" type="curve" smooth="yes"/>
      <point x="223" y="448"/>
      <point x="256" y="478"/>
      <point x="304" y="478" type="curve"/>
      <point x="354" y="458"/>
      <point x="393" y="428"/>
      <point x="430" y="385" type="curve"/>
      <point x="448" y="407"/>
      <point x="466" y="463"/>
      <point x="466" y="499" type="curve"/>
      <point x="424" y="521"/>
      <point x="372" y="533"/>
      <point x="315" y="533" type="curve" smooth="yes"/>
      <point x="193" y="533"/>
      <point x="114" y="478"/>
      <point x="114" y="395" type="curve" smooth="yes"/>
      <point x="114" y="362"/>
      <point x="127" y="325"/>
      <point x="159" y="276" type="curve"/>
      <point x="74" y="246"/>
      <point x="27" y="191"/>
      <point x="27" y="121" type="curve" smooth="yes"/>
      <point x="27" y="42"/>
      <point x="91" y="-11"/>
      <point x="187" y="-11" type="curve" smooth="yes"/>
    </contour>
    <contour>
      <point x="178" y="50"/>
      <point x="142" y="85"/>
      <point x="142" y="137" type="curve" smooth="yes"/>
      <point x="142" y="177"/>
      <point x="158" y="211"/>
      <point x="187" y="234" type="curve"/>
      <point x="219" y="191"/>
      <point x="262" y="142"/>
      <point x="316" y="84" type="curve"/>
      <point x="292" y="63"/>
      <point x="264" y="50"/>
      <point x="232" y="50" type="curve" smooth="yes"/>
    </contour>
  </outline>
</glyph>
<glyph name="comma" format="1">
  <advance width="212"/>
  <unicode hex="002C"/>
  <outline>
    <contour>
      <point x="118" y="-61"/>
      <point x="161" y="15"/>
      <point x="168" y="98" type="curve"/>
      <point x="141" y="127" type="line"/>
      <point x="110" y="127"/>
      <point x="69" y="115"/>
      <point x="42" y="98" type="curve"/>
      <point x="53" y="72"/>
      <point x="59" y="42"/>
      <point x="59" y="7" type="curve" smooth="yes"/>
      <point x="59" y="-32"/>
      <point x="47" y="-71"/>
      <point x="25" y="-98" type="curve"/>
      <point x="45" y="-119" type="line"/>
    </contour>
  </outline>
</glyph>
<glyph name="nine" format="1">
  <advance width="496"/>
  <unicode hex="0039"/>
  <outline>
    <contour>
      <point x="370" y="-11"/>
      <point x="461" y="93"/>
      <point x="461" y="284" type="curve" smooth="yes"/>
      <point x="461" y="433"/>
      <point x="373" y="533"/>
      <point x="241" y="533" type="curve" smooth="yes"/>
      <point x="120" y="533"/>
      <point x="35" y="455"/>
      <point x="35" y="343" type="curve" smooth="yes"/>
      <point x="35" y="238"/>
      <point x="104" y="167"/>
      <point x="206" y="167" type="curve" smooth="yes"/>
      <point x="254" y="167"/>
      <point x="302" y="183"/>
      <point x="344" y="212" type="curve"/>
      <point x="335" y="118"/>
      <point x="290" y="54"/>
      <point x="199" y="54" type="curve" smooth="yes"/>
      <point x="139" y="54"/>
      <point x="84" y="77"/>
      <point x="54" y="115" type="curve"/>
      <point x="42" y="86"/>
      <point x="37" y="64"/>
      <point x="37" y="35" type="curve"/>
      <point x="83" y="5"/>
      <point x="141" y="-11"/>
      <point x="203" y="-11" type="curve" smooth="yes"/>
    </contour>
    <contour>
      <point x="191" y="230"/>
      <point x="150" y="276"/>
      <point x="150" y="348" type="curve" smooth="yes"/>
      <point x="150" y="414"/>
      <point x="185" y="457"/>
      <point x="240" y="457" type="curve" smooth="yes"/>
      <point x="303" y="457"/>
      <point x="341" y="391"/>
      <point x="345" y="275" type="curve"/>
      <point x="319" y="254"/>
      <point x="289" y="239"/>
      <point x="256" y="230" type="curve"/>
    </contour>
  </outline>
</glyph>
<glyph name="C" format="1">
  <advance width="493"/>
  <unicode hex="0043"/>
  <outline>
    <contour>
      <point x="348" y="-11"/>
      <point x="430" y="25"/>
      <point x="475" y="78" type="curve"/>
      <point x="464" y="122" type="line"/>
      <point x="425" y="97"/>
      <point x="365" y="82"/>
      <point x="305" y="82" type="curve" smooth="yes"/>
      <point x="212" y="82"/>
      <point x="152" y="139"/>
      <point x="152" y="269" type="curve" smooth="yes"/>
      <point x="152" y="361"/>
      <point x="204" y="452"/>
      <point x="267" y="469" type="curve"/>
      <point x="302" y="469"/>
      <point x="371" y="437"/>
      <point x="425" y="395" type="curve"/>
      <point x="443" y="417"/>
      <point x="461" y="473"/>
      <point x="461" y="509" type="curve"/>
      <point x="422" y="525"/>
      <point x="372" y="533"/>
      <point x="314" y="533" type="curve" smooth="yes"/>
      <point x="151" y="533"/>
      <point x="37" y="413"/>
      <point x="37" y="241" type="curve" smooth="yes"/>
      <point x="37" y="79"/>
      <point x="120" y="-11"/>
      <point x="270" y="-11" type="curve" smooth="yes"/>
    </contour>
    <contour>
      <point x="269" y="527" type="move" name="top"/>
    </contour>
    <contour>
      <point x="249" y="0" type="move" name="bottom"/>
    </contour>
  </outline>
</glyph>
<glyph name="F" format="1">
  <advance width="433"/>
  <unicode hex="0046"/>
  <outline>
    <contour>
      <point x="150" y="-6"/>
      <point x="172" y="-4"/>
      <point x="192" y="0" type="curve"/>
      <point x="181" y="29"/>
      <point x="176" y="104"/>
      <point x="176" y="229" type="curve"/>
      <point x="230" y="231"/>
      <point x="295" y="227"/>
      <point x="362" y="223" type="curve"/>
      <point x="365" y="239"/>
      <point x="366" y="254"/>
      <point x="366" y="266" type="curve" smooth="yes"/>
      <point x="366" y="279"/>
      <point x="365" y="293"/>
      <point x="362" y="308" type="curve"/>
      <point x="325" y="301"/>
      <point x="300" y="297"/>
      <point x="237" y="297" type="curve" smooth="yes"/>
      <point x="218" y="297"/>
      <point x="195" y="298"/>
      <point x="176" y="299" type="curve"/>
      <point x="177" y="345"/>
      <point x="178" y="397"/>
      <point x="180" y="431" type="curve"/>
      <point x="206" y="435"/>
      <point x="238" y="438"/>
      <point x="268" y="438" type="curve" smooth="yes"/>
      <point x="315" y="438"/>
      <point x="364" y="429"/>
      <point x="393" y="411" type="curve"/>
      <point x="406" y="428"/>
      <point x="414" y="486"/>
      <point x="414" y="527" type="curve"/>
      <point x="368" y="522"/>
      <point x="299" y="520"/>
      <point x="223" y="520" type="curve" smooth="yes"/>
      <point x="156" y="520"/>
      <point x="97" y="522"/>
      <point x="55" y="527" type="curve"/>
      <point x="67" y="475"/>
      <point x="71" y="408"/>
      <point x="71" y="273" type="curve" smooth="yes"/>
      <point x="71" y="180"/>
      <point x="66" y="61"/>
      <point x="60" y="0" type="curve"/>
      <point x="86" y="-4"/>
      <point x="109" y="-6"/>
      <point x="129" y="-6" type="curve" smooth="yes"/>
    </contour>
  </outline>
</glyph>
<glyph name="I" format="1">
  <advance width="247"/>
  <unicode hex="0049"/>
  <outline>
    <contour>
      <point x="150" y="-6"/>
      <point x="172" y="-4"/>
      <point x="192" y="0" type="curve"/>
      <point x="181" y="30"/>
      <point x="176" y="105"/>
      <point x="176" y="227" type="curve" smooth="yes"/>
      <point x="176" y="329"/>
      <point x="181" y="460"/>
      <point x="187" y="527" type="curve"/>
      <point x="162" y="531"/>
      <point x="141" y="533"/>
      <point x="121" y="533" type="curve" smooth="yes"/>
      <point x="99" y="533"/>
      <point x="76" y="531"/>
      <point x="55" y="527" type="curve"/>
      <point x="66" y="497"/>
      <point x="71" y="418"/>
      <point x="71" y="297" type="curve" smooth="yes"/>
      <point x="71" y="196"/>
      <point x="66" y="69"/>
      <point x="60" y="0" type="curve"/>
      <point x="86" y="-4"/>
      <point x="109" y="-6"/>
      <point x="129" y="-6" type="curve" smooth="yes"/>
    </contour>
    <contour>
      <point x="192" y="0" type="move" name="ogonek"/>
    </contour>
    <contour>
      <point x="124" y="527" type="move" name="top"/>
    </contour>
    <contour>
      <point x="20" y="527" type="move" name="topleft"/>
    </contour>
    <contour>
      <point x="124" y="0" type="move" name="bottom"/>
    </contour>
  </outline>
</glyph>
<glyph name="K" format="1">
  <advance width="517"/>
  <unicode hex="004B"/>
  <outline>
    <contour>
      <point x="150" y="-6"/>
      <point x="172" y="-4"/>
      <point x="192" y="0" type="curve"/>
      <point x="182" y="27"/>
      <point x="177" y="89"/>
      <point x="176" y="189" type="curve"/>
      <point x="189" y="202"/>
      <point x="201" y="217"/>
      <point x="215" y="232" type="curve"/>
      <point x="292" y="123"/>
      <point x="351" y="35"/>
      <point x="375" y="-6" type="curve"/>
      <point x="431" y="-6"/>
      <point x="474" y="-1"/>
      <point x="517" y="15" type="curve"/>
      <point x="458" y="58"/>
      <point x="370" y="184"/>
      <point x="288" y="315" type="curve"/>
      <point x="357" y="392"/>
      <point x="431" y="472"/>
      <point x="494" y="533" type="curve"/>
      <point x="450" y="533"/>
      <point x="411" y="531"/>
      <point x="359" y="522" type="curve"/>
      <point x="359" y="492"/>
      <point x="336" y="445"/>
      <point x="176" y="275" type="curve"/>
      <point x="178" y="367"/>
      <point x="182" y="470"/>
      <point x="187" y="527" type="curve"/>
      <point x="162" y="531"/>
      <point x="141" y="533"/>
      <point x="121" y="533" type="curve" smooth="yes"/>
      <point x="99" y="533"/>
      <point x="76" y="531"/>
      <point x="55" y="527" type="curve"/>
      <point x="66" y="497"/>
      <point x="71" y="418"/>
      <point x="71" y="297" type="curve" smooth="yes"/>
      <point x="71" y="196"/>
      <point x="66" y="69"/>
      <point x="60" y="0" type="curve"/>
      <point x="86" y="-4"/>
      <point x="109" y="-6"/>
      <point x="129" y="-6" type="curve" smooth="yes"/>
    </contour>
    <contour>
      <point x="259" y="527" type="move" name="top"/>
    </contour>
    <contour>
      <point x="259" y="0" type="move" name="bottom"/>
    </contour>
  </outline>
</glyph>
<glyph name="L" format="1">
  <advance width="418"/>
  <unicode hex="004C"/>
  <outline>
    <contour>
      <point x="100" y="2"/>
      <point x="154" y="4"/>
      <point x="230" y="4" type="curve" smooth="yes"/>
      <point x="290" y="4"/>
      <point x="349" y="1"/>
      <point x="389" y="-3" type="curve"/>
      <point x="401" y="14"/>
      <point x="410" y="68"/>
      <point x="410" y="110" type="curve"/>
      <point x="377" y="93"/>
      <point x="323" y="83"/>
      <point x="275" y="83" type="curve" smooth="yes"/>
      <point x="243" y="83"/>
      <point x="208" y="86"/>
      <point x="180" y="91" type="curve"/>
      <point x="177" y="122"/>
      <point x="176" y="164"/>
      <point x="176" y="227" type="curve" smooth="yes"/>
      <point x="176" y="327"/>
      <point x="181" y="458"/>
      <point x="187" y="527" type="curve"/>
      <point x="162" y="531"/>
      <point x="140" y="533"/>
      <point x="120" y="533" type="curve" smooth="yes"/>
      <point x="98" y="533"/>
      <point x="76" y="531"/>
      <point x="55" y="527" type="curve"/>
      <point x="66" y="498"/>
      <point x="71" y="420"/>
      <point x="71" y="297" type="curve" smooth="yes"/>
      <point x="71" y="184"/>
      <point x="69" y="120"/>
      <point x="60" y="-3" type="curve"/>
    </contour>
    <contour>
      <point x="134" y="264" type="move" name="center"/>
    </contour>
    <contour>
      <point x="123" y="527" type="move" name="top"/>
    </contour>
    <contour>
      <point x="302" y="407" type="move" name="topright"/>
    </contour>
    <contour>
      <point x="211" y="0" type="move" name="bottom"/>
    </contour>
  </outline>
</glyph>
<glyph name="M" format="1">
  <advance width="713"/>
  <unicode hex="004D"/>
  <outline>
    <contour>
      <point x="117" y="-6"/>
      <point x="133" y="-4"/>
      <point x="148" y="0" type="curve"/>
      <point x="141" y="30"/>
      <point x="137" y="107"/>
      <point x="137" y="227" type="curve" smooth="yes"/>
      <point x="137" y="271"/>
      <point x="137" y="318"/>
      <point x="138" y="363" type="curve"/>
      <point x="199" y="237"/>
      <point x="273" y="74"/>
      <point x="304" y="0" type="curve"/>
      <point x="312" y="-3"/>
      <point x="320" y="-5"/>
      <point x="328" y="-5" type="curve" smooth="yes"/>
      <point x="337" y="-5"/>
      <point x="345" y="-3"/>
      <point x="353" y="0" type="curve"/>
      <point x="388" y="81"/>
      <point x="471" y="265"/>
      <point x="535" y="395" type="curve"/>
      <point x="536" y="368"/>
      <point x="537" y="336"/>
      <point x="537" y="300" type="curve" smooth="yes"/>
      <point x="537" y="196"/>
      <point x="532" y="66"/>
      <point x="526" y="0" type="curve"/>
      <point x="551" y="-4"/>
      <point x="572" y="-6"/>
      <point x="592" y="-6" type="curve" smooth="yes"/>
      <point x="613" y="-6"/>
      <point x="636" y="-4"/>
      <point x="658" y="0" type="curve"/>
      <point x="647" y="30"/>
      <point x="642" y="107"/>
      <point x="642" y="227" type="curve" smooth="yes"/>
      <point x="642" y="331"/>
      <point x="647" y="461"/>
      <point x="653" y="527" type="curve"/>
      <point x="627" y="531"/>
      <point x="604" y="533"/>
      <point x="584" y="533" type="curve" smooth="yes"/>
      <point x="560" y="533"/>
      <point x="537" y="531"/>
      <point x="521" y="527" type="curve"/>
      <point x="488" y="451"/>
      <point x="408" y="273"/>
      <point x="352" y="158" type="curve"/>
      <point x="299" y="266"/>
      <point x="216" y="450"/>
      <point x="184" y="527" type="curve"/>
      <point x="159" y="531"/>
      <point x="135" y="533"/>
      <point x="116" y="533" type="curve" smooth="yes"/>
      <point x="95" y="533"/>
      <point x="75" y="531"/>
      <point x="55" y="527" type="curve"/>
      <point x="64" y="480"/>
      <point x="67" y="413"/>
      <point x="67" y="297" type="curve" smooth="yes"/>
      <point x="67" y="194"/>
      <point x="64" y="65"/>
      <point x="59" y="0" type="curve"/>
      <point x="76" y="-4"/>
      <point x="90" y="-6"/>
      <point x="103" y="-6" type="curve" smooth="yes"/>
    </contour>
  </outline>
</glyph>
<glyph name="N" format="1">
  <advance width="541"/>
  <unicode hex="004E"/>
  <outline>
    <contour>
      <point x="114" y="-6"/>
      <point x="128" y="-4"/>
      <point x="142" y="0" type="curve"/>
      <point x="135" y="30"/>
      <point x="131" y="107"/>
      <point x="131" y="227" type="curve" smooth="yes"/>
      <point x="131" y="281"/>
      <point x="132" y="341"/>
      <point x="133" y="396" type="curve"/>
      <point x="211" y="267"/>
      <point x="316" y="83"/>
      <point x="359" y="0" type="curve"/>
      <point x="386" y="-4"/>
      <point x="410" y="-6"/>
      <point x="431" y="-6" type="curve" smooth="yes"/>
      <point x="454" y="-6"/>
      <point x="476" y="-3"/>
      <point x="491" y="0" type="curve"/>
      <point x="484" y="30"/>
      <point x="480" y="109"/>
      <point x="480" y="230" type="curve" smooth="yes"/>
      <point x="480" y="333"/>
      <point x="484" y="462"/>
      <point x="488" y="527" type="curve"/>
      <point x="470" y="531"/>
      <point x="455" y="533"/>
      <point x="441" y="533" type="curve" smooth="yes"/>
      <point x="428" y="533"/>
      <point x="413" y="531"/>
      <point x="400" y="527" type="curve"/>
      <point x="408" y="497"/>
      <point x="411" y="420"/>
      <point x="411" y="300" type="curve" smooth="yes"/>
      <point x="411" y="246"/>
      <point x="410" y="185"/>
      <point x="409" y="130" type="curve"/>
      <point x="330" y="260"/>
      <point x="226" y="443"/>
      <point x="182" y="527" type="curve"/>
      <point x="154" y="531"/>
      <point x="131" y="533"/>
      <point x="112" y="533" type="curve" smooth="yes"/>
      <point x="91" y="533"/>
      <point x="70" y="531"/>
      <point x="50" y="527" type="curve"/>
      <point x="57" y="497"/>
      <point x="61" y="418"/>
      <point x="61" y="297" type="curve" smooth="yes"/>
      <point x="61" y="194"/>
      <point x="58" y="65"/>
      <point x="53" y="0" type="curve"/>
      <point x="71" y="-4"/>
      <point x="87" y="-6"/>
      <point x="100" y="-6" type="curve" smooth="yes"/>
    </contour>
    <contour>
      <point x="271" y="527" type="move" name="top"/>
    </contour>
    <contour>
      <point x="271" y="0" type="move" name="bottom"/>
    </contour>
  </outline>
</glyph>
<glyph name="U" format="1">
  <advance width="532"/>
  <unicode hex="0055"/>
  <outline>
    <contour>
      <point x="433" y="-5"/>
      <point x="479" y="98"/>
      <point x="479" y="205" type="curve" smooth="yes"/>
      <point x="479" y="305"/>
      <point x="483" y="453"/>
      <point x="487" y="527" type="curve"/>
      <point x="469" y="531"/>
      <point x="454" y="533"/>
      <point x="441" y="533" type="curve" smooth="yes"/>
      <point x="427" y="533"/>
      <point x="412" y="531"/>
      <point x="398" y="527" type="curve"/>
      <point x="404" y="483"/>
      <point x="406" y="321"/>
      <point x="406" y="194" type="curve" smooth="yes"/>
      <point x="406" y="131"/>
      <point x="381" y="75"/>
      <point x="284" y="75" type="curve" smooth="yes"/>
      <point x="213" y="75"/>
      <point x="171" y="114"/>
      <point x="171" y="207" type="curve" smooth="yes"/>
      <point x="171" y="317"/>
      <point x="174" y="456"/>
      <point x="177" y="527" type="curve"/>
      <point x="152" y="531"/>
      <point x="131" y="533"/>
      <point x="111" y="533" type="curve" smooth="yes"/>
      <point x="90" y="533"/>
      <point x="67" y="531"/>
      <point x="45" y="527" type="curve"/>
      <point x="56" y="484"/>
      <point x="61" y="323"/>
      <point x="61" y="200" type="curve" smooth="yes"/>
      <point x="61" y="69"/>
      <point x="136" y="-5"/>
      <point x="264" y="-5" type="curve" smooth="yes"/>
    </contour>
    <contour>
      <point x="364" y="11" type="move" name="ogonek"/>
    </contour>
    <contour>
      <point x="286" y="527" type="move" name="top"/>
    </contour>
    <contour>
      <point x="512" y="527" type="move" name="topright"/>
    </contour>
    <contour>
      <point x="266" y="0" type="move" name="bottom"/>
    </contour>
  </outline>
</glyph>
<glyph name="W" format="1">
  <advance width="799"/>
  <unicode hex="0057"/>
  <outline>
    <contour>
      <point x="303" y="27" type="line"/>
      <point x="328" y="107"/>
      <point x="364" y="221"/>
      <point x="399" y="325" type="curve"/>
      <point x="455" y="145"/>
      <point x="479" y="-9"/>
      <point x="561" y="-9" type="curve"/>
      <point x="626" y="27" type="line"/>
      <point x="668" y="168"/>
      <point x="748" y="409"/>
      <point x="794" y="533" type="curve"/>
      <point x="756" y="533"/>
      <point x="727" y="530"/>
      <point x="695" y="522" type="curve"/>
      <point x="705" y="489"/>
      <point x="670" y="364"/>
      <point x="585" y="106" type="curve"/>
      <point x="571" y="140"/>
      <point x="553" y="189"/>
      <point x="530" y="260" type="curve" smooth="yes"/>
      <point x="507" y="344"/>
      <point x="480" y="467"/>
      <point x="471" y="533" type="curve"/>
      <point x="423" y="533"/>
      <point x="375" y="527"/>
      <point x="328" y="512" type="curve"/>
      <point x="362" y="433" type="line"/>
      <point x="345" y="365"/>
      <point x="313" y="260"/>
      <point x="262" y="106" type="curve"/>
      <point x="248" y="140"/>
      <point x="230" y="189"/>
      <point x="207" y="260" type="curve" smooth="yes"/>
      <point x="182" y="350"/>
      <point x="156" y="471"/>
      <point x="148" y="533" type="curve"/>
      <point x="92" y="533"/>
      <point x="49" y="526"/>
      <point x="5" y="512" type="curve"/>
      <point x="122" y="264"/>
      <point x="129" y="-9"/>
      <point x="238" y="-9" type="curve"/>
    </contour>
    <contour>
      <point x="400" y="527" type="move" name="top"/>
    </contour>
    <contour>
      <point x="400" y="0" type="move" name="bottom"/>
    </contour>
  </outline>
</glyph>
<glyph name="Y" format="1">
  <advance width="484"/>
  <unicode hex="0059"/>
  <outline>
    <contour>
      <point x="270" y="-6"/>
      <point x="292" y="-4"/>
      <point x="312" y="0" type="curve"/>
      <point x="301" y="25"/>
      <point x="296" y="88"/>
      <point x="296" y="188" type="curve"/>
      <point x="341" y="288"/>
      <point x="412" y="436"/>
      <point x="479" y="533" type="curve"/>
      <point x="440" y="533"/>
      <point x="408" y="532"/>
      <point x="365" y="527" type="curve"/>
      <point x="363" y="494"/>
      <point x="335" y="413"/>
      <point x="265" y="278" type="curve"/>
      <point x="201" y="397"/>
      <point x="155" y="509"/>
      <point x="148" y="533" type="curve"/>
      <point x="93" y="533"/>
      <point x="48" y="528"/>
      <point x="5" y="512" type="curve"/>
      <point x="30" y="488"/>
      <point x="124" y="335"/>
      <point x="190" y="187" type="curve"/>
      <point x="189" y="116"/>
      <point x="185" y="42"/>
      <point x="180" y="0" type="curve"/>
      <point x="206" y="-4"/>
      <point x="229" y="-6"/>
      <point x="249" y="-6" type="curve" smooth="yes"/>
    </contour>
    <contour>
      <point x="263" y="527" type="move" name="top"/>
    </contour>
    <contour>
      <point x="243" y="0" type="move" name="bottom"/>
    </contour>
    <contour>
      <point x="20" y="527" type="move" name="topleft"/>
    </contour>
  </outline>
</glyph>
<glyph name="Z" format="1">
  <advance width="455"/>
  <unicode hex="005A"/>
  <outline>
    <contour>
      <point x="424" y="19"/>
      <point x="432" y="79"/>
      <point x="432" y="116" type="curve"/>
      <point x="390" y="99"/>
      <point x="319" y="90"/>
      <point x="258" y="90" type="curve" smooth="yes"/>
      <point x="221" y="90"/>
      <point x="180" y="94"/>
      <point x="152" y="97" type="curve"/>
      <point x="231" y="200"/>
      <point x="383" y="391"/>
      <point x="418" y="440" type="curve" smooth="yes"/>
      <point x="431" y="458"/>
      <point x="436" y="475"/>
      <point x="436" y="493" type="curve" smooth="yes"/>
      <point x="436" y="511"/>
      <point x="427" y="533"/>
      <point x="404" y="546" type="curve"/>
      <point x="367" y="523"/>
      <point x="315" y="516"/>
      <point x="228" y="516" type="curve" smooth="yes"/>
      <point x="143" y="516"/>
      <point x="66" y="520"/>
      <point x="29" y="527" type="curve"/>
      <point x="29" y="489"/>
      <point x="38" y="440"/>
      <point x="52" y="406" type="curve"/>
      <point x="74" y="418"/>
      <point x="103" y="424"/>
      <point x="153" y="424" type="curve" smooth="yes"/>
      <point x="214" y="424"/>
      <point x="280" y="421"/>
      <point x="330" y="421" type="curve"/>
      <point x="197" y="244"/>
      <point x="75" y="96"/>
      <point x="18" y="41" type="curve"/>
      <point x="18" y="0" type="line"/>
      <point x="90" y="4"/>
      <point x="357" y="4"/>
      <point x="412" y="-5" type="curve"/>
    </contour>
    <contour>
      <point x="228" y="527" type="move" name="top"/>
    </contour>
    <contour>
      <point x="228" y="0" type="move" name="bottom"/>
    </contour>
  </outline>
</glyph>
<glyph name="s" format="1">
  <advance width="401"/>
  <unicode hex="0073"/>
  <outline>
    <contour>
      <point x="307" y="-11"/>
      <point x="373" y="34"/>
      <point x="373" y="112" type="curve" smooth="yes"/>
      <point x="373" y="251"/>
      <point x="152" y="245"/>
      <point x="152" y="319" type="curve" smooth="yes"/>
      <point x="152" y="335"/>
      <point x="169" y="351"/>
      <point x="194" y="356" type="curve"/>
      <point x="227" y="356"/>
      <point x="277" y="330"/>
      <point x="327" y="287" type="curve"/>
      <point x="343" y="314"/>
      <point x="359" y="368"/>
      <point x="359" y="394" type="curve"/>
      <point x="317" y="409"/>
      <point x="262" y="418"/>
      <point x="203" y="418" type="curve" smooth="yes"/>
      <point x="105" y="418"/>
      <point x="39" y="372"/>
      <point x="39" y="304" type="curve" smooth="yes"/>
      <point x="39" y="156"/>
      <point x="260" y="165"/>
      <point x="260" y="98" type="curve" smooth="yes"/>
      <point x="260" y="69"/>
      <point x="232" y="55"/>
      <point x="177" y="55" type="curve" smooth="yes"/>
      <point x="124" y="55"/>
      <point x="77" y="75"/>
      <point x="51" y="108" type="curve"/>
      <point x="38" y="77"/>
      <point x="33" y="55"/>
      <point x="33" y="25" type="curve"/>
      <point x="73" y="1"/>
      <point x="128" y="-11"/>
      <point x="193" y="-11" type="curve" smooth="yes"/>
    </contour>
    <contour>
      <point x="202" y="407" type="move" name="top"/>
    </contour>
    <contour>
      <point x="195" y="0" type="move" name="bottom"/>
    </contour>
  </outline>
</glyph>
<glyph name="u" format="1">
  <advance width="492"/>
  <unicode hex="0075"/>
  <outline>
    <contour>
      <point x="237" y="-11"/>
      <point x="286" y="12"/>
      <point x="321" y="49" type="curve"/>
      <point x="327" y="23"/>
      <point x="340" y="3"/>
      <point x="360" y="-11" type="curve"/>
      <point x="396" y="-7"/>
      <point x="432" y="9"/>
      <point x="459" y="30" type="curve"/>
      <point x="428" y="65"/>
      <point x="420" y="89"/>
      <point x="420" y="142" type="curve" smooth="yes"/>
      <point x="420" y="180"/>
      <point x="426" y="326"/>
      <point x="432" y="417" type="curve"/>
      <point x="381" y="417"/>
      <point x="342" y="411"/>
      <point x="302" y="397" type="curve"/>
      <point x="315" y="368"/>
      <point x="321" y="324"/>
      <point x="321" y="257" type="curve" smooth="yes"/>
      <point x="321" y="228"/>
      <point x="317" y="165"/>
      <point x="317" y="102" type="curve"/>
      <point x="294" y="87"/>
      <point x="269" y="80"/>
      <point x="238" y="80" type="curve" smooth="yes"/>
      <point x="194" y="80"/>
      <point x="176" y="100"/>
      <point x="176" y="152" type="curve" smooth="yes"/>
      <point x="176" y="259"/>
      <point x="178" y="360"/>
      <point x="182" y="417" type="curve"/>
      <point x="131" y="417"/>
      <point x="92" y="411"/>
      <point x="52" y="397" type="curve"/>
      <point x="65" y="368"/>
      <point x="71" y="324"/>
      <point x="71" y="257" type="curve" smooth="yes"/>
      <point x="71" y="226"/>
      <point x="67" y="156"/>
      <point x="67" y="127" type="curve" smooth="yes"/>
      <point x="67" y="35"/>
      <point x="107" y="-11"/>
      <point x="187" y="-11" type="curve" smooth="yes"/>
    </contour>
    <contour>
      <point x="407" y="0" type="move" name="ogonek"/>
    </contour>
    <contour>
      <point x="252" y="407" type="move" name="top"/>
    </contour>
    <contour>
      <point x="496" y="407" type="move" name="topright"/>
    </contour>
    <contour>
      <point x="266" y="0" type="move" name="bottom"/>
    </contour>
  </outline>
</glyph>
<glyph name="v" format="1">
  <advance width="431"/>
  <unicode hex="0076"/>
  <outline>
    <contour>
      <point x="301" y="27" type="line"/>
      <point x="332" y="140"/>
      <point x="381" y="304"/>
      <point x="426" y="413" type="curve"/>
      <point x="393" y="413"/>
      <point x="361" y="411"/>
      <point x="324" y="402" type="curve"/>
      <point x="339" y="369"/>
      <point x="326" y="315"/>
      <point x="251" y="75" type="curve"/>
      <point x="213" y="145"/>
      <point x="154" y="339"/>
      <point x="140" y="413" type="curve"/>
      <point x="90" y="413"/>
      <point x="46" y="408"/>
      <point x="5" y="392" type="curve"/>
      <point x="110" y="263"/>
      <point x="107" y="-9"/>
      <point x="220" y="-9" type="curve"/>
    </contour>
    <contour>
      <point x="232" y="407" type="move" name="top"/>
    </contour>
    <contour>
      <point x="232" y="0" type="move" name="bottom"/>
    </contour>
  </outline>
</glyph>
<glyph name="bar" format="1">
  <advance width="347"/>
  <unicode hex="007C"/>
  <outline>
    <contour>
      <point x="205" y="-111"/>
      <point x="230" y="-109"/>
      <point x="252" y="-103" type="curve"/>
      <point x="241" y="-36"/>
      <point x="236" y="53"/>
      <point x="236" y="290" type="curve" smooth="yes"/>
      <point x="236" y="375"/>
      <point x="241" y="562"/>
      <point x="247" y="630" type="curve"/>
      <point x="219" y="636"/>
      <point x="196" y="639"/>
      <point x="174" y="639" type="curve" smooth="yes"/>
      <point x="147" y="639"/>
      <point x="119" y="636"/>
      <point x="95" y="630" type="curve"/>
      <point x="106" y="573"/>
      <point x="111" y="487"/>
      <point x="111" y="290" type="curve" smooth="yes"/>
      <point x="111" y="195"/>
      <point x="106" y="-16"/>
      <point x="100" y="-103" type="curve"/>
      <point x="131" y="-109"/>
      <point x="158" y="-111"/>
      <point x="182" y="-111" type="curve" smooth="yes"/>
    </contour>
  </outline>
</glyph>
<glyph name="currency" format="1">
  <advance width="578"/>
  <unicode hex="00A4"/>
  <outline>
    <contour>
      <point x="482" y="407"/>
      <point x="514" y="437"/>
      <point x="538" y="458" type="curve"/>
      <point x="525" y="484"/>
      <point x="511" y="496"/>
      <point x="484" y="512" type="curve"/>
      <point x="471" y="493"/>
      <point x="444" y="462"/>
      <point x="401" y="417" type="curve"/>
      <point x="446" y="372" type="line"/>
    </contour>
    <contour>
      <point x="107" y="33"/>
      <point x="134" y="64"/>
      <point x="175" y="107" type="curve"/>
      <point x="129" y="152" type="line"/>
      <point x="94" y="119"/>
      <point x="63" y="90"/>
      <point x="40" y="69" type="curve"/>
      <point x="53" y="47"/>
      <point x="72" y="27"/>
      <point x="95" y="14" type="curve"/>
    </contour>
    <contour>
      <point x="509" y="27"/>
      <point x="523" y="42"/>
      <point x="538" y="69" type="curve"/>
      <point x="519" y="81"/>
      <point x="488" y="108"/>
      <point x="445" y="150" type="curve"/>
      <point x="399" y="105" type="line"/>
      <point x="433" y="70"/>
      <point x="462" y="38"/>
      <point x="483" y="14" type="curve"/>
    </contour>
    <contour>
      <point x="179" y="422" type="line"/>
      <point x="145" y="457"/>
      <point x="115" y="489"/>
      <point x="94" y="512" type="curve"/>
      <point x="71" y="499"/>
      <point x="53" y="482"/>
      <point x="40" y="458" type="curve"/>
      <point x="58" y="446"/>
      <point x="90" y="418"/>
      <point x="134" y="377" type="curve"/>
    </contour>
    <component base="o" xOffset="42" yOffset="61"/>
  </outline>
</glyph>
<glyph name="copyright" format="1">
  <advance width="727"/>
  <unicode hex="00A9"/>
  <outline>
    <contour>
      <point x="533" y="-20"/>
      <point x="671" y="118"/>
      <point x="671" y="287" type="curve" smooth="yes"/>
      <point x="671" y="456"/>
      <point x="533" y="594"/>
      <point x="364" y="594" type="curve" smooth="yes"/>
      <point x="195" y="594"/>
      <point x="57" y="456"/>
      <point x="57" y="287" type="curve" smooth="yes"/>
      <point x="57" y="118"/>
      <point x="195" y="-20"/>
      <point x="364" y="-20" type="curve" smooth="yes"/>
    </contour>
    <contour>
      <point x="410" y="114"/>
      <point x="466" y="136"/>
      <point x="496" y="172" type="curve"/>
      <point x="490" y="193" type="line"/>
      <point x="462" y="178"/>
      <point x="422" y="168"/>
      <point x="378" y="168" type="curve" smooth="yes"/>
      <point x="313" y="168"/>
      <point x="264" y="206"/>
      <point x="264" y="296" type="curve" smooth="yes"/>
      <point x="264" y="360"/>
      <point x="302" y="421"/>
      <point x="350" y="433" type="curve"/>
      <point x="376" y="433"/>
      <point x="427" y="411"/>
      <point x="466" y="386" type="curve"/>
      <point x="478" y="400"/>
      <point x="486" y="432"/>
      <point x="486" y="452" type="curve"/>
      <point x="457" y="463"/>
      <point x="423" y="468"/>
      <point x="384" y="468" type="curve" smooth="yes"/>
      <point x="272" y="468"/>
      <point x="194" y="390"/>
      <point x="194" y="278" type="curve" smooth="yes"/>
      <point x="194" y="173"/>
      <point x="253" y="114"/>
      <point x="356" y="114" type="curve" smooth="yes"/>
    </contour>
    <contour>
      <point x="223" y="31"/>
      <point x="108" y="147"/>
      <point x="108" y="287" type="curve" smooth="yes"/>
      <point x="108" y="428"/>
      <point x="223" y="543"/>
      <point x="364" y="543" type="curve" smooth="yes"/>
      <point x="504" y="543"/>
      <point x="620" y="428"/>
      <point x="620" y="287" type="curve" smooth="yes"/>
      <point x="620" y="147"/>
      <point x="504" y="31"/>
      <point x="364" y="31" type="curve" smooth="yes"/>
    </contour>
  </outline>
</glyph>
<glyph name="logicalnot" format="1">
  <advance width="533"/>
  <unicode hex="00AC"/>
  <outline>
    <contour>
      <point x="440" y="64"/>
      <point x="455" y="66"/>
      <point x="468" y="69" type="curve"/>
      <point x="465" y="139"/>
      <point x="464" y="204"/>
      <point x="464" y="308" type="curve"/>
      <point x="398" y="305"/>
      <point x="332" y="304"/>
      <point x="267" y="304" type="curve" smooth="yes"/>
      <point x="201" y="304"/>
      <point x="136" y="305"/>
      <point x="70" y="308" type="curve"/>
      <point x="67" y="294"/>
      <point x="65" y="278"/>
      <point x="65" y="265" type="curve" smooth="yes"/>
      <point x="65" y="251"/>
      <point x="67" y="236"/>
      <point x="70" y="223" type="curve"/>
      <point x="136" y="226"/>
      <point x="201" y="227"/>
      <point x="267" y="227" type="curve" smooth="yes"/>
      <point x="308" y="227"/>
      <point x="350" y="226"/>
      <point x="387" y="225" type="curve"/>
      <point x="387" y="173"/>
      <point x="384" y="117"/>
      <point x="382" y="69" type="curve"/>
      <point x="397" y="66"/>
      <point x="413" y="64"/>
      <point x="426" y="64" type="curve" smooth="yes"/>
    </contour>
  </outline>
</glyph>
<glyph name="degree" format="1">
  <advance width="360"/>
  <unicode hex="00B0"/>
  <outline>
    <contour>
      <point x="262" y="345"/>
      <point x="326" y="404"/>
      <point x="326" y="489" type="curve" smooth="yes"/>
      <point x="326" y="566"/>
      <point x="273" y="617"/>
      <point x="195" y="617" type="curve" smooth="yes"/>
      <point x="101" y="617"/>
      <point x="35" y="558"/>
      <point x="35" y="475" type="curve" smooth="yes"/>
      <point x="35" y="397"/>
      <point x="89" y="345"/>
      <point x="170" y="345" type="curve" smooth="yes"/>
    </contour>
    <contour>
      <point x="137" y="401"/>
      <point x="108" y="436"/>
      <point x="108" y="490" type="curve" smooth="yes"/>
      <point x="108" y="541"/>
      <point x="141" y="578"/>
      <point x="186" y="578" type="curve"/>
      <point x="227" y="570"/>
      <point x="251" y="536"/>
      <point x="251" y="487" type="curve" smooth="yes"/>
      <point x="251" y="434"/>
      <point x="223" y="401"/>
      <point x="178" y="401" type="curve" smooth="yes"/>
    </contour>
  </outline>
</glyph>
<glyph name="paragraph" format="1">
  <advance width="445"/>
  <unicode hex="00B6"/>
  <outline>
    <contour>
      <point x="332" y="-6"/>
      <point x="358" y="-4"/>
      <point x="388" y="0" type="curve"/>
      <point x="382" y="58"/>
      <point x="377" y="174"/>
      <point x="377" y="267" type="curve" smooth="yes"/>
      <point x="377" y="392"/>
      <point x="381" y="474"/>
      <point x="390" y="505" type="curve"/>
      <point x="352" y="520"/>
      <point x="282" y="532"/>
      <point x="217" y="532" type="curve" smooth="yes"/>
      <point x="95" y="532"/>
      <point x="24" y="485"/>
      <point x="24" y="374" type="curve" smooth="yes"/>
      <point x="24" y="293"/>
      <point x="68" y="230"/>
      <point x="122" y="199" type="curve"/>
      <point x="154" y="199"/>
      <point x="207" y="213"/>
      <point x="261" y="234" type="curve"/>
      <point x="259" y="114"/>
      <point x="254" y="35"/>
      <point x="245" y="0" type="curve"/>
      <point x="266" y="-4"/>
      <point x="288" y="-6"/>
      <point x="308" y="-6" type="curve" smooth="yes"/>
    </contour>
  </outline>
</glyph>
<glyph name="ordmasculine" format="1">
  <advance width="389"/>
  <unicode hex="00BA"/>
  <outline>
    <contour>
      <point x="276" y="293"/>
      <point x="344" y="353"/>
      <point x="344" y="440" type="curve" smooth="yes"/>
      <point x="344" y="519"/>
      <point x="288" y="572"/>
      <point x="204" y="572" type="curve" smooth="yes"/>
      <point x="110" y="572"/>
      <point x="44" y="511"/>
      <point x="44" y="425" type="curve" smooth="yes"/>
      <point x="44" y="346"/>
      <point x="98" y="293"/>
      <point x="180" y="293" type="curve" smooth="yes"/>
    </contour>
    <contour>
      <point x="152" y="331"/>
      <point x="123" y="365"/>
      <point x="123" y="419" type="curve" smooth="yes"/>
      <point x="123" y="471"/>
      <point x="153" y="503"/>
      <point x="201" y="503" type="curve"/>
      <point x="241" y="492"/>
      <point x="266" y="457"/>
      <point x="266" y="413" type="curve" smooth="yes"/>
      <point x="266" y="361"/>
      <point x="239" y="331"/>
      <point x="192" y="331" type="curve" smooth="yes"/>
    </contour>
  </outline>
</glyph>
<glyph name="Thorn" format="1">
  <advance width="490"/>
  <unicode hex="00DE"/>
  <outline>
    <contour>
      <point x="150" y="-6"/>
      <point x="172" y="-4"/>
      <point x="192" y="0" type="curve"/>
      <point x="186" y="16"/>
      <point x="182" y="44"/>
      <point x="180" y="85" type="curve"/>
      <point x="199" y="82"/>
      <point x="220" y="80"/>
      <point x="241" y="80" type="curve" smooth="yes"/>
      <point x="374" y="80"/>
      <point x="466" y="160"/>
      <point x="466" y="276" type="curve" smooth="yes"/>
      <point x="466" y="389"/>
      <point x="390" y="452"/>
      <point x="251" y="452" type="curve" smooth="yes"/>
      <point x="228" y="452"/>
      <point x="204" y="450"/>
      <point x="182" y="447" type="curve"/>
      <point x="183" y="478"/>
      <point x="185" y="506"/>
      <point x="187" y="527" type="curve"/>
      <point x="162" y="531"/>
      <point x="141" y="533"/>
      <point x="121" y="533" type="curve" smooth="yes"/>
      <point x="99" y="533"/>
      <point x="76" y="531"/>
      <point x="55" y="527" type="curve"/>
      <point x="66" y="497"/>
      <point x="71" y="418"/>
      <point x="71" y="297" type="curve" smooth="yes"/>
      <point x="71" y="196"/>
      <point x="66" y="69"/>
      <point x="60" y="0" type="curve"/>
      <point x="86" y="-4"/>
      <point x="109" y="-6"/>
      <point x="129" y="-6" type="curve" smooth="yes"/>
    </contour>
    <contour>
      <point x="254" y="141"/>
      <point x="216" y="149"/>
      <point x="177" y="161" type="curve"/>
      <point x="174" y="204"/>
      <point x="175" y="316"/>
      <point x="179" y="370" type="curve"/>
      <point x="195" y="375"/>
      <point x="213" y="377"/>
      <point x="230" y="377" type="curve" smooth="yes"/>
      <point x="307" y="377"/>
      <point x="351" y="344"/>
      <point x="351" y="268" type="curve" smooth="yes"/>
      <point x="351" y="209"/>
      <point x="318" y="161"/>
      <point x="278" y="141" type="curve"/>
    </contour>
    <contour>
      <point x="245" y="527" type="move" name="top"/>
    </contour>
    <contour>
      <point x="245" y="0" type="move" name="bottom"/>
    </contour>
  </outline>
</glyph>
<glyph name="germandbls" format="1">
  <advance width="538"/>
  <unicode hex="00DF"/>
  <outline>
    <contour>
      <point x="120" y="-95"/>
      <point x="153" y="-52"/>
      <point x="163" y="13" type="curve"/>
      <point x="200" y="-3"/>
      <point x="243" y="-11"/>
      <point x="287" y="-11" type="curve" smooth="yes"/>
      <point x="427" y="-11"/>
      <point x="502" y="47"/>
      <point x="502" y="155" type="curve" smooth="yes"/>
      <point x="502" y="237"/>
      <point x="441" y="300"/>
      <point x="353" y="307" type="curve"/>
      <point x="415" y="363" type="line" smooth="yes"/>
      <point x="466" y="409"/>
      <point x="484" y="438"/>
      <point x="484" y="476" type="curve" smooth="yes"/>
      <point x="484" y="505"/>
      <point x="472" y="532"/>
      <point x="452" y="546" type="curve"/>
      <point x="418" y="524"/>
      <point x="370" y="516"/>
      <point x="278" y="516" type="curve" smooth="yes"/>
      <point x="199" y="516"/>
      <point x="137" y="520"/>
      <point x="106" y="527" type="curve"/>
      <point x="79" y="488"/>
      <point x="55" y="448"/>
      <point x="55" y="369" type="curve" smooth="yes"/>
      <point x="55" y="257"/>
      <point x="64" y="150"/>
      <point x="64" y="84" type="curve" smooth="yes"/>
      <point x="64" y="-52"/>
      <point x="52" y="-91"/>
      <point x="20" y="-140" type="curve"/>
      <point x="43" y="-159" type="line"/>
    </contour>
    <contour>
      <point x="234" y="54"/>
      <point x="195" y="65"/>
      <point x="166" y="86" type="curve"/>
      <point x="165" y="132"/>
      <point x="160" y="196"/>
      <point x="160" y="279" type="curve" smooth="yes"/>
      <point x="160" y="338"/>
      <point x="161" y="383"/>
      <point x="163" y="417" type="curve"/>
      <point x="190" y="423"/>
      <point x="226" y="426"/>
      <point x="266" y="426" type="curve" smooth="yes"/>
      <point x="319" y="426"/>
      <point x="377" y="424"/>
      <point x="400" y="421" type="curve"/>
      <point x="249" y="287" type="line" smooth="yes"/>
      <point x="228" y="269"/>
      <point x="216" y="254"/>
      <point x="212" y="239" type="curve"/>
      <point x="212" y="230"/>
      <point x="237" y="215"/>
      <point x="253" y="215" type="curve"/>
      <point x="268" y="242"/>
      <point x="296" y="260"/>
      <point x="321" y="260" type="curve"/>
      <point x="362" y="243"/>
      <point x="386" y="204"/>
      <point x="386" y="155" type="curve" smooth="yes"/>
      <point x="386" y="91"/>
      <point x="346" y="54"/>
      <point x="276" y="54" type="curve" smooth="yes"/>
    </contour>
  </outline>
</glyph>
<glyph name="ae" format="1">
  <advance width="690"/>
  <unicode hex="00E6"/>
  <outline>
    <contour>
      <point x="177" y="-11"/>
      <point x="243" y="17"/>
      <point x="295" y="60" type="curve"/>
      <point x="324" y="13"/>
      <point x="373" y="-11"/>
      <point x="440" y="-11" type="curve" smooth="yes"/>
      <point x="515" y="-11"/>
      <point x="593" y="25"/>
      <point x="635" y="78" type="curve"/>
      <point x="624" y="117" type="line"/>
      <point x="588" y="93"/>
      <point x="537" y="79"/>
      <point x="481" y="79" type="curve" smooth="yes"/>
      <point x="417" y="79"/>
      <point x="384" y="108"/>
      <point x="374" y="172" type="curve"/>
      <point x="473" y="175"/>
      <point x="580" y="189"/>
      <point x="650" y="206" type="curve"/>
      <point x="650" y="345"/>
      <point x="591" y="418"/>
      <point x="480" y="418" type="curve" smooth="yes"/>
      <point x="427" y="418"/>
      <point x="380" y="402"/>
      <point x="345" y="374" type="curve"/>
      <point x="320" y="402"/>
      <point x="281" y="418"/>
      <point x="229" y="418" type="curve" smooth="yes"/>
      <point x="161" y="418"/>
      <point x="91" y="378"/>
      <point x="52" y="319" type="curve"/>
      <point x="60" y="280" type="line"/>
      <point x="94" y="303"/>
      <point x="141" y="317"/>
      <point x="184" y="317" type="curve" smooth="yes"/>
      <point x="251" y="317"/>
      <point x="263" y="285"/>
      <point x="263" y="218" type="curve"/>
      <point x="108" y="206"/>
      <point x="33" y="162"/>
      <point x="33" y="83" type="curve" smooth="yes"/>
      <point x="33" y="28"/>
      <point x="73" y="-11"/>
      <point x="127" y="-11" type="curve" smooth="yes"/>
    </contour>
    <contour>
      <point x="157" y="58"/>
      <point x="145" y="81"/>
      <point x="145" y="101" type="curve" smooth="yes"/>
      <point x="145" y="144"/>
      <point x="187" y="172"/>
      <point x="263" y="178" type="curve"/>
      <point x="264" y="146"/>
      <point x="269" y="118"/>
      <point x="278" y="94" type="curve"/>
      <point x="250" y="71"/>
      <point x="208" y="50"/>
      <point x="174" y="47" type="curve"/>
    </contour>
    <contour>
      <point x="371" y="281"/>
      <point x="394" y="338"/>
      <point x="433" y="362" type="curve"/>
      <point x="488" y="362"/>
      <point x="527" y="315"/>
      <point x="529" y="252" type="curve"/>
      <point x="493" y="235"/>
      <point x="429" y="220"/>
      <point x="371" y="214" type="curve"/>
    </contour>
    <contour>
      <point x="345" y="407" type="move" name="top"/>
    </contour>
    <contour>
      <point x="345" y="0" type="move" name="bottom"/>
    </contour>
  </outline>
</glyph>
<glyph name="eth" format="1">
  <advance width="506"/>
  <unicode hex="00F0"/>
  <outline>
    <contour>
      <point x="461" y="215" type="line"/>
      <point x="461" y="366"/>
      <point x="333" y="498"/>
      <point x="155" y="611" type="curve"/>
      <point x="125" y="573" type="line"/>
      <point x="312" y="425"/>
      <point x="368" y="293"/>
      <point x="368" y="177" type="curve"/>
    </contour>
    <component base="o"/>
    <component base="uni0337" xOffset="76" yOffset="309" xScale="0.85" yScale="0.85"/>
  </outline>
</glyph>
<glyph name="thorn" format="1">
  <advance width="505"/>
  <unicode hex="00FE"/>
  <outline>
    <contour>
      <point x="110" y="-180"/>
      <point x="149" y="-174"/>
      <point x="189" y="-160" type="curve"/>
      <point x="181" y="-121"/>
      <point x="175" y="-68"/>
      <point x="173" y="5" type="curve"/>
      <point x="196" y="-5"/>
      <point x="221" y="-9"/>
      <point x="249" y="-9" type="curve" smooth="yes"/>
      <point x="385" y="-9"/>
      <point x="465" y="73"/>
      <point x="465" y="212" type="curve" smooth="yes"/>
      <point x="465" y="344"/>
      <point x="407" y="413"/>
      <point x="301" y="413" type="curve" smooth="yes"/>
      <point x="254" y="413"/>
      <point x="208" y="393"/>
      <point x="173" y="362" type="curve"/>
      <point x="175" y="444"/>
      <point x="178" y="508"/>
      <point x="182" y="547" type="curve"/>
      <point x="137" y="547"/>
      <point x="98" y="543"/>
      <point x="52" y="527" type="curve"/>
      <point x="65" y="474"/>
      <point x="71" y="391"/>
      <point x="71" y="269" type="curve" smooth="yes"/>
      <point x="71" y="82"/>
      <point x="66" y="-93"/>
      <point x="59" y="-180" type="curve"/>
    </contour>
    <contour>
      <point x="217" y="45"/>
      <point x="191" y="57"/>
      <point x="170" y="80" type="curve"/>
      <point x="168" y="145"/>
      <point x="168" y="224"/>
      <point x="171" y="300" type="curve"/>
      <point x="198" y="315"/>
      <point x="234" y="326"/>
      <point x="266" y="326" type="curve"/>
      <point x="318" y="305"/>
      <point x="349" y="249"/>
      <point x="349" y="177" type="curve" smooth="yes"/>
      <point x="349" y="94"/>
      <point x="311" y="45"/>
      <point x="245" y="45" type="curve" smooth="yes"/>
    </contour>
    <contour>
      <point x="251" y="407" type="move" name="top"/>
    </contour>
    <contour>
      <point x="251" y="0" type="move" name="bottom"/>
    </contour>
  </outline>
</glyph>
<glyph name="OE" format="1">
  <advance width="806"/>
  <unicode hex="0152"/>
  <outline>
    <contour>
      <point x="413" y="-6"/>
      <point x="472" y="4"/>
      <point x="561" y="4" type="curve" smooth="yes"/>
      <point x="631" y="4"/>
      <point x="702" y="2"/>
      <point x="750" y="-3" type="curve"/>
      <point x="763" y="16"/>
      <point x="771" y="75"/>
      <point x="771" y="113" type="curve"/>
      <point x="731" y="96"/>
      <point x="665" y="86"/>
      <point x="606" y="86" type="curve" smooth="yes"/>
      <point x="574" y="86"/>
      <point x="539" y="89"/>
      <point x="513" y="94" type="curve"/>
      <point x="511" y="120"/>
      <point x="509" y="197"/>
      <point x="509" y="230" type="curve"/>
      <point x="581" y="230"/>
      <point x="621" y="229"/>
      <point x="715" y="223" type="curve"/>
      <point x="718" y="238"/>
      <point x="719" y="253"/>
      <point x="719" y="266" type="curve" smooth="yes"/>
      <point x="719" y="280"/>
      <point x="718" y="294"/>
      <point x="715" y="308" type="curve"/>
      <point x="677" y="301"/>
      <point x="652" y="297"/>
      <point x="580" y="297" type="curve" smooth="yes"/>
      <point x="558" y="297"/>
      <point x="533" y="298"/>
      <point x="510" y="299" type="curve"/>
      <point x="511" y="344"/>
      <point x="513" y="391"/>
      <point x="515" y="431" type="curve"/>
      <point x="540" y="435"/>
      <point x="572" y="438"/>
      <point x="601" y="438" type="curve" smooth="yes"/>
      <point x="653" y="438"/>
      <point x="711" y="429"/>
      <point x="746" y="411" type="curve"/>
      <point x="759" y="429"/>
      <point x="767" y="489"/>
      <point x="767" y="527" type="curve"/>
      <point x="714" y="522"/>
      <point x="634" y="520"/>
      <point x="556" y="520" type="curve" smooth="yes"/>
      <point x="456" y="520"/>
      <point x="409" y="532"/>
      <point x="319" y="532" type="curve" smooth="yes"/>
      <point x="138" y="532"/>
      <point x="37" y="437"/>
      <point x="37" y="266" type="curve" smooth="yes"/>
      <point x="37" y="105"/>
      <point x="160" y="-6"/>
      <point x="339" y="-6" type="curve" smooth="yes"/>
    </contour>
    <contour>
      <point x="214" y="68"/>
      <point x="152" y="158"/>
      <point x="152" y="248" type="curve" smooth="yes"/>
      <point x="152" y="395"/>
      <point x="221" y="457"/>
      <point x="340" y="457" type="curve" smooth="yes"/>
      <point x="361" y="457"/>
      <point x="381" y="454"/>
      <point x="400" y="448" type="curve"/>
      <point x="402" y="410"/>
      <point x="404" y="361"/>
      <point x="404" y="300" type="curve" smooth="yes"/>
      <point x="404" y="227"/>
      <point x="401" y="141"/>
      <point x="398" y="74" type="curve"/>
      <point x="356" y="62"/>
      <point x="317" y="55"/>
      <point x="292" y="55" type="curve"/>
    </contour>
    <contour>
      <point x="403" y="527" type="move" name="top"/>
    </contour>
    <contour>
      <point x="403" y="0" type="move" name="bottom"/>
    </contour>
  </outline>
</glyph>
<glyph name="gravecomb" format="1">
  <advance width="212"/>
  <unicode hex="0300"/>
  <outline>
    <contour>
      <point x="212" y="499" type="line"/>
      <point x="161" y="521"/>
      <point x="116" y="572"/>
      <point x="110" y="614" type="curve"/>
      <point x="55" y="614"/>
      <point x="18" y="598"/>
      <point x="0" y="565" type="curve"/>
      <point x="41" y="517"/>
      <point x="119" y="482"/>
      <point x="203" y="470" type="curve"/>
    </contour>
    <contour>
      <point x="106" y="607" type="move" name="top"/>
    </contour>
    <contour>
      <point x="110" y="407" type="move" name="_top"/>
    </contour>
  </outline>
</glyph>
<glyph name="uni030C" format="1">
  <advance width="280"/>
  <unicode hex="030C"/>
  <outline>
    <contour>
      <point x="127" y="476"/>
      <point x="160" y="479"/>
      <point x="190" y="489" type="curve"/>
      <point x="214" y="525"/>
      <point x="252" y="575"/>
      <point x="280" y="609" type="curve"/>
      <point x="251" y="615"/>
      <point x="232" y="617"/>
      <point x="209" y="617" type="curve"/>
      <point x="158" y="537" type="line"/>
      <point x="103" y="617" type="line"/>
      <point x="63" y="617"/>
      <point x="30" y="613"/>
      <point x="0" y="603" type="curve"/>
      <point x="27" y="572"/>
      <point x="58" y="529"/>
      <point x="88" y="476" type="curve"/>
    </contour>
    <contour>
      <point x="140" y="617" type="move" name="top"/>
    </contour>
    <contour>
      <point x="133" y="407" type="move" name="_top"/>
    </contour>
  </outline>
</glyph>
<glyph name="uni0335" format="1">
  <advance width="410"/>
  <unicode hex="0335"/>
  <outline>
    <contour>
      <point x="92" y="227"/>
      <point x="119" y="231"/>
      <point x="201" y="231" type="curve" smooth="yes"/>
      <point x="256" y="231"/>
      <point x="325" y="228"/>
      <point x="362" y="223" type="curve"/>
      <point x="364" y="237"/>
      <point x="366" y="253"/>
      <point x="366" y="266" type="curve" smooth="yes"/>
      <point x="366" y="280"/>
      <point x="364" y="295"/>
      <point x="362" y="308" type="curve"/>
      <point x="319" y="301"/>
      <point x="290" y="297"/>
      <point x="209" y="297" type="curve" smooth="yes"/>
      <point x="153" y="297"/>
      <point x="85" y="300"/>
      <point x="48" y="305" type="curve"/>
      <point x="45" y="291"/>
      <point x="43" y="275"/>
      <point x="43" y="262" type="curve" smooth="yes"/>
      <point x="43" y="248"/>
      <point x="45" y="233"/>
      <point x="48" y="220" type="curve"/>
    </contour>
    <contour>
      <point x="205" y="264" type="move" name="_center"/>
    </contour>
  </outline>
</glyph>
<glyph name="uni0337" format="1">
  <advance width="358"/>
  <unicode hex="0337"/>
  <outline>
    <contour>
      <point x="107" y="186"/>
      <point x="129" y="201"/>
      <point x="192" y="233" type="curve" smooth="yes"/>
      <point x="235" y="255"/>
      <point x="292" y="280"/>
      <point x="321" y="290" type="curve"/>
      <point x="316" y="313"/>
      <point x="297" y="348"/>
      <point x="282" y="366" type="curve"/>
      <point x="251" y="343"/>
      <point x="229" y="327"/>
      <point x="166" y="295" type="curve" smooth="yes"/>
      <point x="123" y="273"/>
      <point x="66" y="248"/>
      <point x="37" y="238" type="curve"/>
      <point x="42" y="216"/>
      <point x="61" y="180"/>
      <point x="76" y="162" type="curve"/>
    </contour>
    <contour>
      <point x="179" y="264" type="move" name="_center"/>
    </contour>
  </outline>
</glyph>
<glyph name="endash" format="1">
  <advance width="541"/>
  <unicode hex="2013"/>
  <outline>
    <contour>
      <point x="108" y="141"/>
      <point x="195" y="150"/>
      <point x="277" y="150" type="curve" smooth="yes"/>
      <point x="346" y="150"/>
      <point x="415" y="149"/>
      <point x="492" y="145" type="curve"/>
      <point x="492" y="187"/>
      <point x="486" y="223"/>
      <point x="466" y="265" type="curve"/>
      <point x="430" y="255"/>
      <point x="343" y="246"/>
      <point x="262" y="246" type="curve" smooth="yes"/>
      <point x="192" y="246"/>
      <point x="124" y="247"/>
      <point x="48" y="251" type="curve"/>
      <point x="48" y="209"/>
      <point x="54" y="173"/>
      <point x="74" y="131" type="curve"/>
    </contour>
  </outline>
</glyph>
<glyph name="guilsinglleft" format="1">
  <advance width="277"/>
  <unicode hex="2039"/>
  <outline>
    <contour>
      <point x="203" y="58"/>
      <point x="222" y="80"/>
      <point x="241" y="109" type="curve"/>
      <point x="128" y="222" type="line"/>
      <point x="241" y="336" type="line"/>
      <point x="222" y="365"/>
      <point x="203" y="386"/>
      <point x="168" y="412" type="curve"/>
      <point x="126" y="350"/>
      <point x="84" y="301"/>
      <point x="27" y="238" type="curve"/>
      <point x="27" y="207" type="line"/>
      <point x="84" y="144"/>
      <point x="126" y="95"/>
      <point x="168" y="32" type="curve"/>
    </contour>
  </outline>
</glyph>
<glyph name="summation" format="1">
  <advance width="522"/>
  <unicode hex="2211"/>
  <outline>
    <contour>
      <point x="449" y="33"/>
      <point x="457" y="72"/>
      <point x="455" y="114" type="curve"/>
      <point x="406" y="103"/>
      <point x="332" y="95"/>
      <point x="266" y="95" type="curve" smooth="yes"/>
      <point x="225" y="95"/>
      <point x="190" y="96"/>
      <point x="156" y="99" type="curve"/>
      <point x="399" y="285" type="line"/>
      <point x="346" y="325"/>
      <point x="297" y="374"/>
      <point x="240" y="447" type="curve"/>
      <point x="320" y="447"/>
      <point x="368" y="446"/>
      <point x="448" y="442" type="curve"/>
      <point x="466" y="479"/>
      <point x="474" y="518"/>
      <point x="472" y="561" type="curve"/>
      <point x="422" y="549"/>
      <point x="348" y="542"/>
      <point x="282" y="542" type="curve" smooth="yes"/>
      <point x="210" y="542"/>
      <point x="162" y="543"/>
      <point x="92" y="547" type="curve"/>
      <point x="74" y="508"/>
      <point x="65" y="468"/>
      <point x="68" y="428" type="curve"/>
      <point x="115" y="396"/>
      <point x="145" y="366"/>
      <point x="242" y="249" type="curve"/>
      <point x="154" y="185"/>
      <point x="84" y="125"/>
      <point x="60" y="89" type="curve"/>
      <point x="52" y="63"/>
      <point x="48" y="31"/>
      <point x="50" y="0" type="curve"/>
      <point x="241" y="0" type="line" smooth="yes"/>
      <point x="313" y="0"/>
      <point x="361" y="-1"/>
      <point x="431" y="-5" type="curve"/>
    </contour>
  </outline>
</glyph>
<glyph name="uni2219" format="1">
  <advance width="350"/>
  <unicode hex="2219"/>
  <outline>
    <contour>
      <point x="227" y="168"/>
      <point x="272" y="213"/>
      <point x="315" y="265" type="curve"/>
      <point x="262" y="308"/>
      <point x="218" y="352"/>
      <point x="175" y="405" type="curve"/>
      <point x="122" y="362"/>
      <point x="78" y="318"/>
      <point x="35" y="265" type="curve"/>
      <point x="88" y="222"/>
      <point x="132" y="178"/>
      <point x="175" y="125" type="curve"/>
    </contour>
  </outline>
</glyph>
<glyph name="radical" format="1">
  <advance width="465"/>
  <unicode hex="221A"/>
  <outline>
    <contour>
      <point x="296" y="27" type="line"/>
      <point x="345" y="199"/>
      <point x="438" y="495"/>
      <point x="490" y="647" type="curve"/>
      <point x="451" y="647"/>
      <point x="422" y="644"/>
      <point x="390" y="636" type="curve"/>
      <point x="406" y="593"/>
      <point x="363" y="431"/>
      <point x="250" y="94" type="curve"/>
      <point x="230" y="140"/>
      <point x="213" y="214"/>
      <point x="188" y="332" type="curve"/>
      <point x="132" y="332"/>
      <point x="88" y="325"/>
      <point x="43" y="311" type="curve"/>
      <point x="129" y="159"/>
      <point x="122" y="-9"/>
      <point x="212" y="-9" type="curve"/>
    </contour>
  </outline>
</glyph>
<glyph name="f_f_i" format="1">
  <advance width="797"/>
  <outline>
    <contour>
      <point x="170" y="-81"/>
      <point x="200" y="-33"/>
      <point x="200" y="63" type="curve" smooth="yes"/>
      <point x="200" y="109"/>
      <point x="193" y="181"/>
      <point x="193" y="279" type="curve" smooth="yes"/>
      <point x="193" y="336" type="line"/>
      <point x="356" y="336" type="line"/>
      <point x="372" y="-20"/>
      <point x="366" y="-69"/>
      <point x="314" y="-140" type="curve"/>
      <point x="336" y="-159" type="line"/>
      <point x="441" y="-81"/>
      <point x="470" y="-33"/>
      <point x="470" y="63" type="curve" smooth="yes"/>
      <point x="470" y="109"/>
      <point x="463" y="181"/>
      <point x="463" y="279" type="curve" smooth="yes"/>
      <point x="463" y="336" type="line"/>
      <point x="624" y="336" type="line"/>
      <point x="625" y="316"/>
      <point x="625" y="294"/>
      <point x="625" y="272" type="curve" smooth="yes"/>
      <point x="625" y="208"/>
      <point x="621" y="144"/>
      <point x="621" y="73" type="curve" smooth="yes"/>
      <point x="621" y="10"/>
      <point x="639" y="-9"/>
      <point x="685" y="-9" type="curve" smooth="yes"/>
      <point x="705" y="-9"/>
      <point x="737" y="0"/>
      <point x="764" y="27" type="curve"/>
      <point x="733" y="61"/>
      <point x="725" y="84"/>
      <point x="725" y="192" type="curve" smooth="yes"/>
      <point x="725" y="294"/>
      <point x="730" y="379"/>
      <point x="737" y="417" type="curve"/>
      <point x="695" y="417"/>
      <point x="658" y="413"/>
      <point x="616" y="397" type="curve"/>
      <point x="465" y="397" type="line"/>
      <point x="469" y="478"/>
      <point x="478" y="507"/>
      <point x="499" y="523" type="curve"/>
      <point x="536" y="520"/>
      <point x="588" y="497"/>
      <point x="649" y="455" type="curve"/>
      <point x="665" y="481"/>
      <point x="681" y="535"/>
      <point x="681" y="561" type="curve"/>
      <point x="640" y="576"/>
      <point x="592" y="585"/>
      <point x="539" y="585" type="curve" smooth="yes"/>
      <point x="497" y="585"/>
      <point x="460" y="571"/>
      <point x="430" y="547" type="curve"/>
      <point x="382" y="572"/>
      <point x="327" y="585"/>
      <point x="268" y="585" type="curve" smooth="yes"/>
      <point x="173" y="585"/>
      <point x="103" y="514"/>
      <point x="86" y="406" type="curve"/>
      <point x="66" y="392"/>
      <point x="46" y="380"/>
      <point x="23" y="368" type="curve"/>
      <point x="23" y="341"/>
      <point x="33" y="334"/>
      <point x="86" y="333" type="curve"/>
      <point x="101" y="-20"/>
      <point x="96" y="-69"/>
      <point x="43" y="-140" type="curve"/>
      <point x="65" y="-159" type="line"/>
    </contour>
    <contour>
      <point x="201" y="467"/>
      <point x="214" y="492"/>
      <point x="241" y="506" type="curve"/>
      <point x="394" y="506" type="line"/>
      <point x="374" y="477"/>
      <point x="361" y="439"/>
      <point x="355" y="397" type="curve"/>
      <point x="196" y="397" type="line"/>
    </contour>
  </outline>
</glyph>
<glyph name="f_t" format="1">
  <advance width="588"/>
  <outline>
    <contour>
      <point x="170" y="-80"/>
      <point x="200" y="-32"/>
      <point x="199" y="63" type="curve" smooth="yes"/>
      <point x="200" y="123"/>
      <point x="193" y="160"/>
      <point x="193" y="336" type="curve"/>
      <point x="367" y="336" type="line"/>
      <point x="368" y="318"/>
      <point x="369" y="297"/>
      <point x="369" y="286" type="curve" smooth="yes"/>
      <point x="369" y="204"/>
      <point x="365" y="145"/>
      <point x="365" y="80" type="curve" smooth="yes"/>
      <point x="365" y="14"/>
      <point x="385" y="-9"/>
      <point x="439" y="-9" type="curve" smooth="yes"/>
      <point x="486" y="-9"/>
      <point x="537" y="16"/>
      <point x="563" y="53" type="curve"/>
      <point x="557" y="86" type="line"/>
      <point x="535" y="80"/>
      <point x="509" y="77"/>
      <point x="481" y="76" type="curve"/>
      <point x="473" y="116"/>
      <point x="468" y="177"/>
      <point x="468" y="252" type="curve" smooth="yes"/>
      <point x="468" y="282"/>
      <point x="469" y="309"/>
      <point x="471" y="336" type="curve"/>
      <point x="508" y="335"/>
      <point x="535" y="331"/>
      <point x="554" y="324" type="curve"/>
      <point x="566" y="351"/>
      <point x="571" y="373"/>
      <point x="571" y="404" type="curve"/>
      <point x="549" y="400"/>
      <point x="514" y="397"/>
      <point x="473" y="396" type="curve"/>
      <point x="472" y="416"/>
      <point x="470" y="442"/>
      <point x="468" y="466" type="curve"/>
      <point x="429" y="469" type="line"/>
      <point x="395" y="414"/>
      <point x="345" y="397"/>
      <point x="299" y="397" type="curve" smooth="yes"/>
      <point x="194" y="397" type="line"/>
      <point x="198" y="476"/>
      <point x="206" y="507"/>
      <point x="228" y="523" type="curve"/>
      <point x="256" y="521"/>
      <point x="295" y="501"/>
      <point x="342" y="465" type="curve"/>
      <point x="356" y="491"/>
      <point x="371" y="545"/>
      <point x="371" y="571" type="curve"/>
      <point x="339" y="580"/>
      <point x="304" y="585"/>
      <point x="268" y="585" type="curve" smooth="yes"/>
      <point x="173" y="585"/>
      <point x="103" y="515"/>
      <point x="86" y="406" type="curve"/>
      <point x="67" y="393"/>
      <point x="47" y="381"/>
      <point x="23" y="368" type="curve"/>
      <point x="23" y="340"/>
      <point x="34" y="334"/>
      <point x="86" y="333" type="curve"/>
      <point x="101" y="-15"/>
      <point x="96" y="-68"/>
      <point x="43" y="-140" type="curve"/>
      <point x="65" y="-159" type="line"/>
    </contour>
  </outline>
</glyph>
<glyph name="four.dnom" format="1">
  <advance width="354"/>
  <outline>
    <contour>
      <point x="248" y="-3"/>
      <point x="262" y="-2"/>
      <point x="274" y="0" type="curve"/>
      <point x="272" y="17"/>
      <point x="270" y="36"/>
      <point x="270" y="53" type="curve"/>
      <point x="290" y="53" type="line"/>
      <point x="301" y="73"/>
      <point x="307" y="100"/>
      <point x="307" y="124" type="curve"/>
      <point x="298" y="121"/>
      <point x="283" y="119"/>
      <point x="269" y="118" type="curve"/>
      <point x="269" y="178" type="line"/>
      <point x="254" y="180"/>
      <point x="239" y="181"/>
      <point x="227" y="181" type="curve"/>
      <point x="189" y="115" type="line"/>
      <point x="109" y="115" type="line"/>
      <point x="169" y="196"/>
      <point x="218" y="245"/>
      <point x="245" y="268" type="curve"/>
      <point x="217" y="280"/>
      <point x="188" y="284"/>
      <point x="152" y="284" type="curve"/>
      <point x="92" y="200"/>
      <point x="40" y="117"/>
      <point x="40" y="83" type="curve" smooth="yes"/>
      <point x="40" y="65"/>
      <point x="47" y="52"/>
      <point x="59" y="43" type="curve"/>
      <point x="81" y="50"/>
      <point x="111" y="54"/>
      <point x="189" y="54" type="curve"/>
      <point x="189" y="36"/>
      <point x="188" y="17"/>
      <point x="187" y="0" type="curve"/>
      <point x="205" y="-2"/>
      <point x="221" y="-3"/>
      <point x="235" y="-3" type="curve" smooth="yes"/>
    </contour>
  </outline>
</glyph>
<glyph name="nine.dnom" format="1">
  <advance width="353"/>
  <outline>
    <contour>
      <point x="248" y="-6"/>
      <point x="305" y="52"/>
      <point x="305" y="149" type="curve" smooth="yes"/>
      <point x="305" y="227"/>
      <point x="254" y="277"/>
      <point x="174" y="277" type="curve" smooth="yes"/>
      <point x="101" y="277"/>
      <point x="50" y="235"/>
      <point x="50" y="174" type="curve" smooth="yes"/>
      <point x="50" y="121"/>
      <point x="90" y="85"/>
      <point x="150" y="85" type="curve" smooth="yes"/>
      <point x="177" y="85"/>
      <point x="202" y="93"/>
      <point x="225" y="110" type="curve"/>
      <point x="220" y="63"/>
      <point x="194" y="38"/>
      <point x="147" y="38" type="curve" smooth="yes"/>
      <point x="112" y="38"/>
      <point x="80" y="51"/>
      <point x="64" y="71" type="curve"/>
      <point x="56" y="50"/>
      <point x="53" y="34"/>
      <point x="53" y="18" type="curve"/>
      <point x="81" y="2"/>
      <point x="113" y="-6"/>
      <point x="150" y="-6" type="curve" smooth="yes"/>
    </contour>
    <contour>
      <point x="148" y="122"/>
      <point x="129" y="142"/>
      <point x="129" y="172" type="curve" smooth="yes"/>
      <point x="129" y="202"/>
      <point x="147" y="221"/>
      <point x="174" y="221" type="curve" smooth="yes"/>
      <point x="204" y="221"/>
      <point x="222" y="195"/>
      <point x="225" y="147" type="curve"/>
      <point x="212" y="136"/>
      <point x="196" y="128"/>
      <point x="179" y="122" type="curve"/>
    </contour>
  </outline>
</glyph>
<glyph name="six.dnom" format="1">
  <advance width="354"/>
  <outline>
    <contour>
      <point x="250" y="-5"/>
      <point x="304" y="33"/>
      <point x="304" y="87" type="curve" smooth="yes"/>
      <point x="304" y="140"/>
      <point x="262" y="175"/>
      <point x="202" y="175" type="curve" smooth="yes"/>
      <point x="175" y="175"/>
      <point x="150" y="167"/>
      <point x="128" y="152" type="curve"/>
      <point x="135" y="190"/>
      <point x="154" y="214"/>
      <point x="184" y="224" type="curve"/>
      <point x="202" y="224"/>
      <point x="235" y="208"/>
      <point x="261" y="187" type="curve"/>
      <point x="275" y="202"/>
      <point x="289" y="240"/>
      <point x="289" y="265" type="curve"/>
      <point x="268" y="273"/>
      <point x="241" y="277"/>
      <point x="210" y="277" type="curve" smooth="yes"/>
      <point x="110" y="277"/>
      <point x="46" y="222"/>
      <point x="46" y="126" type="curve" smooth="yes"/>
      <point x="46" y="48"/>
      <point x="98" y="-5"/>
      <point x="176" y="-5" type="curve" smooth="yes"/>
    </contour>
    <contour>
      <point x="145" y="38"/>
      <point x="124" y="68"/>
      <point x="124" y="114" type="curve"/>
      <point x="137" y="125"/>
      <point x="153" y="133"/>
      <point x="170" y="138" type="curve"/>
      <point x="203" y="138"/>
      <point x="225" y="119"/>
      <point x="225" y="90" type="curve" smooth="yes"/>
      <point x="225" y="59"/>
      <point x="207" y="38"/>
      <point x="179" y="38" type="curve" smooth="yes"/>
    </contour>
  </outline>
</glyph>
<glyph name="three.dnom" format="1">
  <advance width="354"/>
  <outline>
    <contour>
      <point x="248" y="-6"/>
      <point x="294" y="26"/>
      <point x="294" y="85" type="curve" smooth="yes"/>
      <point x="294" y="120"/>
      <point x="264" y="154"/>
      <point x="214" y="162" type="curve"/>
      <point x="263" y="192"/>
      <point x="286" y="210"/>
      <point x="286" y="243" type="curve" smooth="yes"/>
      <point x="286" y="258"/>
      <point x="278" y="274"/>
      <point x="267" y="284" type="curve"/>
      <point x="245" y="273"/>
      <point x="212" y="268"/>
      <point x="158" y="268" type="curve" smooth="yes"/>
      <point x="114" y="268"/>
      <point x="80" y="270"/>
      <point x="63" y="274" type="curve"/>
      <point x="63" y="246"/>
      <point x="70" y="214"/>
      <point x="81" y="194" type="curve"/>
      <point x="94" y="201"/>
      <point x="112" y="203"/>
      <point x="144" y="203" type="curve" smooth="yes"/>
      <point x="221" y="203" type="line"/>
      <point x="140" y="151" type="line" smooth="yes"/>
      <point x="121" y="139"/>
      <point x="114" y="127"/>
      <point x="112" y="120" type="curve" smooth="yes"/>
      <point x="112" y="113"/>
      <point x="133" y="102"/>
      <point x="146" y="102" type="curve"/>
      <point x="155" y="117"/>
      <point x="172" y="125"/>
      <point x="180" y="125" type="curve"/>
      <point x="203" y="118"/>
      <point x="216" y="102"/>
      <point x="216" y="83" type="curve" smooth="yes"/>
      <point x="216" y="55"/>
      <point x="193" y="40"/>
      <point x="151" y="40" type="curve" smooth="yes"/>
      <point x="115" y="40"/>
      <point x="83" y="52"/>
      <point x="65" y="71" type="curve"/>
      <point x="58" y="53"/>
      <point x="55" y="37"/>
      <point x="55" y="18" type="curve"/>
      <point x="85" y="2"/>
      <point x="122" y="-6"/>
      <point x="162" y="-6" type="curve" smooth="yes"/>
    </contour>
  </outline>
</glyph>
